@startuml
skinparam classAttributeIconSize 0

interface ICarrierIDReader
class HermesRFID {
  +CarrierIDReaderConfigPath: string
  +carrierIDReaderType: CarrierIDReaderType
  +ParseCarrierIDReaderData(command: string): int
  +GetCarrierID(out carrierID: string): int
  +SetCarrierID(carrierID: string): int
  -ReadHermosFlow(out content: string, out errCode: int): int
}
class CommChannel
class AbstractLogUtility

HermesRFID ..|> ICarrierIDReader
HermesRFID --> CommChannel
HermesRFID --> AbstractLogUtility
@enduml
